<svg width="839" height="270" viewBox="0 0 839 270" fill="none" xmlns="http://www.w3.org/2000/svg">
<g clip-path="url(#clip0)">
<path d="M217.043 135C217.043 180.313 180.313 217.043 135 217.043L128.481 242.349L135 270C209.561 270 270 209.561 270 135L242.361 128.481L217.043 135Z" fill="#FB3A82"/>
<path d="M135 0C60.4394 0 0 60.4394 0 135L24.7087 138.26L52.9574 135C52.9574 89.6875 89.6875 52.9574 135 52.9574L138.26 25.7407L135 0Z" fill="#27D1B3"/>
<path d="M0 135C0 209.561 60.4394 270 135 270V217.043C89.6875 217.043 52.9574 180.313 52.9574 135H0Z" fill="#31A7FB"/>
<path d="M270 135C270 60.4394 209.561 0 135 0V52.9574C180.313 52.9574 217.043 89.6875 217.043 135H270Z" fill="#FC9744"/>
<path d="M270 135H248.069C248.069 67.9018 199.132 12.2449 135 1.77082V0C209.562 0 270 60.4378 270 135Z" fill="#FB8627"/>
<path d="M241.941 67.3479C248.416 75.0566 248.03 86.6064 240.784 93.8537C237.073 97.5589 232.14 99.6012 226.898 99.6012C223.438 99.6012 220.113 98.71 217.19 97.0373L210.763 103.464C206.564 93.3865 200.414 84.3252 192.782 76.7572L230.359 39.4355C236.987 46.0527 242.93 53.3485 248.069 61.2201L241.941 67.3479Z" fill="#FB8627"/>
<path d="M270 135C270 209.562 209.562 270 135 270V268.229C199.132 257.755 248.069 202.098 248.069 135H270Z" fill="#FB1466"/>
<path d="M191.408 49.6738L121.293 119.788C117.154 123.927 117.154 130.637 121.293 134.777L110.176 145.894C106.407 149.662 106.127 155.803 109.76 159.704C113.574 163.799 119.988 163.885 123.911 159.962L135.195 148.678C139.334 152.818 146.044 152.818 150.183 148.678L220.298 78.5638L191.408 49.6738Z" fill="#CBE5E7"/>
<path d="M207.605 91.257L220.298 78.5638L191.408 49.6738L178.715 62.367C188.345 71.9968 197.974 81.6272 207.605 91.257Z" fill="#A9D3D8"/>
<path d="M220.297 78.5667L150.184 148.68C148.115 150.749 145.403 151.787 142.693 151.787C139.977 151.787 137.265 150.749 135.196 148.68L123.913 159.963C119.99 163.886 113.575 163.799 109.761 159.702C108.076 157.899 107.235 155.612 107.191 153.308C109.788 153.374 112.401 152.417 114.384 150.434L123.489 141.329C124.622 140.197 126.381 139.959 127.757 140.778C129.418 141.765 131.29 142.259 133.164 142.259C135.875 142.259 138.586 141.221 140.656 139.151L210.769 69.0381L220.297 78.5667Z" fill="#A9D3D8"/>
<path d="M233.098 73.7662C229.526 70.1939 229.526 64.4016 233.098 60.8294L247.776 46.1518C254.391 39.5368 254.391 28.8112 247.776 22.1956C241.161 15.5806 230.435 15.5806 223.82 22.1956L209.142 36.8732C205.57 40.4454 199.778 40.4454 196.206 36.8732C192.781 33.4481 187.227 33.4481 183.802 36.8732C180.377 40.2983 180.377 45.8517 183.802 49.2768L220.695 86.1698C224.12 89.5949 229.673 89.5949 233.099 86.1698C236.524 82.7447 236.524 77.1913 233.098 73.7662Z" fill="#3F5959"/>
<path d="M233.096 60.8288C229.527 64.4036 229.527 70.1944 233.096 73.764C234.808 75.4805 235.666 77.7243 235.666 79.9682C235.666 82.212 234.808 84.4554 233.096 86.1724C229.674 89.5948 224.122 89.5948 220.694 86.1724L209.639 75.1171C213.066 78.5396 218.619 78.5396 222.041 75.1171C223.758 73.4059 224.611 71.1568 224.611 68.913C224.611 66.6691 223.758 64.42 222.041 62.7088C218.472 59.1397 218.472 53.3484 222.041 49.7735L236.72 35.0944C241.344 30.4764 242.734 23.8488 240.898 18.0195C243.413 18.8074 245.782 20.2033 247.776 22.1971C254.393 28.8085 254.393 39.5378 247.776 46.1496L233.096 60.8288Z" fill="#384848"/>
</g>
<path d="M305.172 166V121.703H305.594L337.234 166H348.953V98.3594H335.406V142.422H335.031L303.438 98.3594H291.625V166H305.172ZM382.141 167.078C397.328 167.078 407.031 157.375 407.031 140.828C407.031 124.516 397.188 114.672 382.141 114.672C367.094 114.672 357.25 124.562 357.25 140.828C357.25 157.328 366.953 167.078 382.141 167.078ZM382.141 156.625C375.391 156.625 371.125 150.953 371.125 140.875C371.125 130.891 375.484 125.125 382.141 125.125C388.797 125.125 393.109 130.891 393.109 140.875C393.109 150.953 388.844 156.625 382.141 156.625ZM417.766 104.172V115.75H410.688V126.062H417.766V152.453C417.766 162.25 422.359 166.188 434.172 166.188C436.938 166.188 439.281 165.953 440.688 165.625V155.547C439.844 155.688 438.578 155.781 437.359 155.781C433.328 155.781 431.453 153.953 431.453 150.109V126.062H440.734V115.75H431.453V104.172H417.766ZM470.031 124.797C476.125 124.797 480.297 129.203 480.578 135.625H459.25C459.719 129.344 464.031 124.797 470.031 124.797ZM480.766 150.625C479.5 154.469 475.656 156.953 470.641 156.953C463.656 156.953 459.109 152.031 459.109 144.859V144.016H493.75V139.844C493.75 124.562 484.516 114.672 469.891 114.672C455.031 114.672 445.656 125.078 445.656 141.109C445.656 157.188 454.938 167.078 470.406 167.078C482.828 167.078 491.828 160.469 493.328 150.625H480.766Z" fill="#FB3A82"/>
<path d="M499.984 130.516C499.984 138.062 504.906 142.938 514.609 145L523.188 146.781C528.109 147.906 529.844 149.406 529.844 152.078C529.844 155.359 526.656 157.469 521.5 157.469C516.062 157.469 512.922 155.125 512.078 150.719H498.719C499.609 160.609 507.625 167.078 521.5 167.078C534.438 167.078 543.484 160.562 543.484 150.672C543.484 143.312 539.172 139.188 528.672 136.984L520.094 135.156C515.031 134.078 513.156 132.344 513.156 129.766C513.156 126.438 516.297 124.281 521.031 124.281C526.094 124.281 529.141 127.047 529.562 131.125H542.172C541.891 121.281 533.922 114.672 521.031 114.672C508.234 114.672 499.984 120.953 499.984 130.516Z" fill="#27D1B3"/>
<path d="M570.438 98.3594V166H584.594V144.672H597.25C611.5 144.672 621.391 135.391 621.391 121.516C621.391 107.594 611.828 98.3594 597.953 98.3594H570.438ZM584.594 109.562H594.203C602.312 109.562 607 113.875 607 121.562C607 129.297 602.266 133.609 594.156 133.609H584.594V109.562ZM628.844 166H642.531V115.75H628.844V166ZM635.641 108.953C639.625 108.953 642.766 105.766 642.766 101.922C642.766 98.0312 639.625 94.8906 635.641 94.8906C631.656 94.8906 628.516 98.0312 628.516 101.922C628.516 105.766 631.656 108.953 635.641 108.953ZM697.328 134.453C696.719 123.062 688.094 114.672 674.5 114.672C659.453 114.672 649.844 124.703 649.844 140.828C649.844 157.234 659.453 167.078 674.594 167.078C687.812 167.078 696.672 159.438 697.375 147.578H684.625C683.781 153.062 680.219 156.344 674.734 156.344C667.938 156.344 663.719 150.719 663.719 140.828C663.719 131.125 667.938 125.406 674.688 125.406C680.312 125.406 683.828 129.156 684.625 134.453H697.328ZM718.188 135.906H718V98.3594H704.312V166H718V149.406L721.562 145.562L735.953 166H751.703L731.594 137.312L750.766 115.75H735.25L718.188 135.906Z" fill="#FC9744"/>
<path d="M778.188 124.797C784.281 124.797 788.453 129.203 788.734 135.625H767.406C767.875 129.344 772.188 124.797 778.188 124.797ZM788.922 150.625C787.656 154.469 783.812 156.953 778.797 156.953C771.812 156.953 767.266 152.031 767.266 144.859V144.016H801.906V139.844C801.906 124.562 792.672 114.672 778.047 114.672C763.188 114.672 753.812 125.078 753.812 141.109C753.812 157.188 763.094 167.078 778.562 167.078C790.984 167.078 799.984 160.469 801.484 150.625H788.922ZM808.984 166H822.672V137.922C822.672 130.844 826.609 126.719 833.359 126.719C835.328 126.719 837.203 127.047 838.328 127.516V115.469C837.391 115.188 836.031 114.953 834.438 114.953C828.531 114.953 824.266 118.422 822.484 124.797H822.203V115.75H808.984V166Z" fill="#31A7FB"/>
<defs>
<clipPath id="clip0">
<rect width="270" height="270" fill="white"/>
</clipPath>
</defs>
</svg>
