<svg width="1337" height="512" viewBox="0 0 1337 512" fill="none" xmlns="http://www.w3.org/2000/svg">
<path d="M411.577 256C411.577 341.926 341.926 411.577 256 411.577L243.638 459.565L256 512C397.389 512 512 397.389 512 256L459.589 243.638L411.577 256Z" fill="#FB3A82"/>
<path d="M256 0C114.611 0 0 114.611 0 256L46.855 262.181L100.423 256C100.423 170.074 170.074 100.423 256 100.423L262.181 48.812L256 0Z" fill="#27D1B3"/>
<path d="M0 256C0 397.389 114.611 512 256 512V411.577C170.074 411.577 100.423 341.926 100.423 256H0Z" fill="#31A7FB"/>
<path d="M512 256C512 114.611 397.389 0 256 0V100.423C341.926 100.423 411.577 170.074 411.577 256H512Z" fill="#FC9744"/>
<path d="M512 256H470.412C470.412 128.762 377.613 23.22 256 3.358V0C397.392 0 512 114.608 512 256Z" fill="#FB8627"/>
<path d="M458.791 127.712C471.071 142.33 470.339 164.232 456.597 177.975C449.561 185.001 440.207 188.874 430.266 188.874C423.704 188.874 417.399 187.184 411.857 184.012L399.67 196.199C391.707 177.089 380.045 159.906 365.571 145.555L436.829 74.7822C449.397 87.3302 460.667 101.165 470.413 116.092L458.791 127.712Z" fill="#FB8627"/>
<path d="M512 256C512 397.392 397.392 512 256 512V508.642C377.613 488.78 470.412 383.238 470.412 256H512Z" fill="#FB1466"/>
<path d="M362.966 94.1953L230.007 227.153C222.159 235.001 222.159 247.726 230.007 255.575L208.926 276.656C201.779 283.803 201.249 295.448 208.138 302.845C215.37 310.61 227.533 310.773 234.972 303.334L256.369 281.937C264.218 289.786 276.942 289.786 284.791 281.937L417.75 148.979L362.966 94.1953Z" fill="#CBE5E7"/>
<path d="M393.68 173.049L417.75 148.979L362.966 94.1953L338.896 118.265C357.157 136.526 375.418 154.788 393.68 173.049Z" fill="#A9D3D8"/>
<path d="M417.749 148.985L284.794 281.94C280.869 285.865 275.728 287.833 270.588 287.833C265.437 287.833 260.296 285.865 256.372 281.94L234.975 303.337C227.537 310.775 215.371 310.61 208.139 302.842C204.945 299.422 203.349 295.085 203.266 290.717C208.19 290.841 213.145 289.027 216.906 285.267L234.172 268.001C236.32 265.854 239.655 265.404 242.266 266.956C245.415 268.827 248.964 269.764 252.519 269.764C257.66 269.764 262.8 267.796 266.725 263.871L399.68 130.916L417.749 148.985Z" fill="#A9D3D8"/>
<path d="M442.023 139.882C435.249 133.108 435.249 122.124 442.023 115.35L469.856 87.5167C482.4 74.9727 482.4 54.6337 469.856 42.0887C457.312 29.5447 436.973 29.5447 424.429 42.0887L396.596 69.9217C389.822 76.6957 378.838 76.6957 372.064 69.9217C365.569 63.4267 355.038 63.4267 348.543 69.9217C342.048 76.4167 342.048 86.9477 348.543 93.4427L418.503 163.403C424.998 169.898 435.529 169.898 442.024 163.403C448.519 156.908 448.519 146.377 442.023 139.882Z" fill="#3F5959"/>
<path d="M442.02 115.349C435.252 122.128 435.252 133.109 442.02 139.878C445.265 143.133 446.893 147.388 446.893 151.643C446.893 155.898 445.265 160.152 442.02 163.408C435.53 169.898 425.001 169.898 418.501 163.408L397.537 142.444C404.037 148.934 414.566 148.934 421.056 142.444C424.311 139.199 425.929 134.934 425.929 130.679C425.929 126.424 424.312 122.159 421.056 118.914C414.288 112.146 414.288 101.164 421.056 94.3849L448.892 66.5489C457.659 57.7919 460.296 45.2239 456.814 34.1699C461.584 35.6639 466.075 38.3109 469.856 42.0919C482.404 54.6289 482.404 74.9749 469.856 87.5129L442.02 115.349Z" fill="#384848"/>
<path d="M576.68 313V238.258H577.312L629.906 313H644.109V211.539H628.781V286.352H628.219L575.625 211.539H561.352V313H576.68ZM692.836 314.406C714 314.406 727.922 299.852 727.922 276.016C727.922 252.25 713.93 237.695 692.836 237.695C671.742 237.695 657.75 252.25 657.75 276.016C657.75 299.852 671.672 314.406 692.836 314.406ZM692.836 301.891C680.953 301.891 673.219 292.469 673.219 276.016C673.219 259.633 680.953 250.211 692.836 250.211C704.719 250.211 712.453 259.633 712.453 276.016C712.453 292.469 704.789 301.891 692.836 301.891ZM744.094 221.523V239.031H733.336V251.055H744.094V293.523C744.094 307.797 749.93 313.492 764.906 313.492C768.281 313.492 771.656 313.211 773.344 312.789V300.766C772.359 300.977 769.898 301.117 768.352 301.117C762.164 301.117 759.352 298.234 759.352 291.836V251.055H773.414V239.031H759.352V221.523H744.094ZM815.039 249.93C825.656 249.93 832.828 257.875 833.18 269.195H796.195C796.969 258.016 804.422 249.93 815.039 249.93ZM833.109 291.273C831.07 297.742 824.672 302.102 816.023 302.102C803.859 302.102 796.125 293.594 796.125 280.727V279.812H848.367V274.609C848.367 252.18 835.57 237.695 815.039 237.695C794.156 237.695 780.797 253.164 780.797 276.367C780.797 299.711 793.945 314.406 815.672 314.406C832.617 314.406 845.414 304.773 847.523 291.273H833.109Z" fill="#FB3A82"/>
<path d="M858.844 259.984C858.844 270.742 865.805 277.492 879.867 280.727L891.891 283.539C899.977 285.367 902.719 288.18 902.719 292.961C902.719 299.008 897.094 302.805 887.953 302.805C878.672 302.805 873.398 299.008 871.992 291.273H856.945C858.352 305.336 869.461 314.406 887.953 314.406C905.391 314.406 917.977 305.125 917.977 291.625C917.977 280.938 912.211 275.031 897.094 271.516L885.07 268.773C877.055 266.945 873.68 263.781 873.68 259.141C873.68 253.234 879.164 249.227 887.391 249.227C895.898 249.227 901.172 253.727 902.016 260.898H916.289C915.797 247.258 904.617 237.695 887.391 237.695C870.375 237.695 858.844 246.766 858.844 259.984Z" fill="#27D1B3"/>
<path d="M960.867 211.539V313H976.617V278.336H998.414C1018.31 278.336 1032.3 264.695 1032.3 244.867C1032.3 225.109 1018.59 211.539 998.906 211.539H960.867ZM976.617 224.828H994.758C1008.4 224.828 1016.2 232.141 1016.2 244.938C1016.2 257.734 1008.4 265.117 994.688 265.117H976.617V224.828ZM1044.75 313H1059.94V239.031H1044.75V313ZM1052.34 227.078C1057.2 227.078 1061.06 223.141 1061.06 218.359C1061.06 213.508 1057.2 209.641 1052.34 209.641C1047.49 209.641 1043.55 213.508 1043.55 218.359C1043.55 223.141 1047.49 227.078 1052.34 227.078ZM1138.97 264.484C1137.63 249.93 1126.03 237.695 1106.98 237.695C1085.95 237.695 1072.17 252.531 1072.17 276.016C1072.17 299.922 1085.95 314.406 1107.12 314.406C1124.91 314.406 1137.49 303.719 1139.11 287.969H1124.48C1122.73 296.547 1116.61 301.68 1107.26 301.68C1095.45 301.68 1087.64 292.258 1087.64 276.016C1087.64 260.125 1095.38 250.352 1107.12 250.352C1117.03 250.352 1122.94 256.609 1124.48 264.484H1138.97ZM1165.76 270.742H1165.62V211.539H1150.43V313H1165.62V286.422L1171.95 280.164L1197.05 313H1214.7L1182.84 270.883L1213.5 239.031H1195.64L1165.76 270.742Z" fill="#FC9744"/>
<path d="M1253.51 249.93C1264.12 249.93 1271.3 257.875 1271.65 269.195H1234.66C1235.44 258.016 1242.89 249.93 1253.51 249.93ZM1271.58 291.273C1269.54 297.742 1263.14 302.102 1254.49 302.102C1242.33 302.102 1234.59 293.594 1234.59 280.727V279.812H1286.84V274.609C1286.84 252.18 1274.04 237.695 1253.51 237.695C1232.62 237.695 1219.27 253.164 1219.27 276.367C1219.27 299.711 1232.41 314.406 1254.14 314.406C1271.09 314.406 1283.88 304.773 1285.99 291.273H1271.58ZM1298.65 313H1313.84V268.703C1313.84 258.227 1319.88 251.688 1329.66 251.688C1332.61 251.688 1335.28 252.039 1336.48 252.531V238.398C1335.35 238.188 1333.45 237.836 1331.27 237.836C1322.55 237.836 1315.95 242.969 1313.48 251.617H1313.13V239.031H1298.65V313Z" fill="#31A7FB"/>
</svg>
