<svg width="1680" height="512" viewBox="0 0 1680 512" fill="none" xmlns="http://www.w3.org/2000/svg">
<path d="M411.577 256C411.577 341.926 341.926 411.577 256 411.577L243.638 459.565L256 512C397.389 512 512 397.389 512 256L459.589 243.638L411.577 256Z" fill="#FB3A82"/>
<path d="M256 0C114.611 0 0 114.611 0 256L46.855 262.181L100.423 256C100.423 170.074 170.074 100.423 256 100.423L262.181 48.812L256 0Z" fill="#27D1B3"/>
<path d="M0 256C0 397.389 114.611 512 256 512V411.577C170.074 411.577 100.423 341.926 100.423 256H0Z" fill="#31A7FB"/>
<path d="M512 256C512 114.611 397.389 0 256 0V100.423C341.926 100.423 411.577 170.074 411.577 256H512Z" fill="#FC9744"/>
<path d="M512 256H470.412C470.412 128.762 377.613 23.22 256 3.358V0C397.392 0 512 114.608 512 256Z" fill="#FB8627"/>
<path d="M458.791 127.712C471.071 142.33 470.339 164.232 456.597 177.975C449.561 185.001 440.207 188.874 430.266 188.874C423.704 188.874 417.399 187.184 411.857 184.012L399.67 196.199C391.707 177.089 380.045 159.906 365.571 145.555L436.829 74.7822C449.397 87.3302 460.667 101.165 470.413 116.092L458.791 127.712Z" fill="#FB8627"/>
<path d="M512 256C512 397.392 397.392 512 256 512V508.642C377.613 488.78 470.412 383.238 470.412 256H512Z" fill="#FB1466"/>
<path d="M362.966 94.1953L230.007 227.153C222.159 235.001 222.159 247.726 230.007 255.575L208.926 276.656C201.779 283.803 201.249 295.448 208.138 302.845C215.37 310.61 227.533 310.773 234.972 303.334L256.369 281.937C264.218 289.786 276.942 289.786 284.791 281.937L417.75 148.979L362.966 94.1953Z" fill="#CBE5E7"/>
<path d="M393.68 173.049L417.75 148.979L362.966 94.1953L338.896 118.265C357.157 136.526 375.418 154.788 393.68 173.049Z" fill="#A9D3D8"/>
<path d="M417.749 148.985L284.794 281.94C280.869 285.865 275.728 287.833 270.588 287.833C265.437 287.833 260.296 285.865 256.372 281.94L234.975 303.337C227.537 310.775 215.371 310.61 208.139 302.842C204.945 299.422 203.349 295.085 203.266 290.717C208.19 290.841 213.145 289.027 216.906 285.267L234.172 268.001C236.32 265.854 239.655 265.404 242.266 266.956C245.415 268.827 248.964 269.764 252.519 269.764C257.66 269.764 262.8 267.796 266.725 263.871L399.68 130.916L417.749 148.985Z" fill="#A9D3D8"/>
<path d="M442.023 139.882C435.249 133.108 435.249 122.124 442.023 115.35L469.856 87.5167C482.4 74.9727 482.4 54.6337 469.856 42.0887C457.312 29.5447 436.973 29.5447 424.429 42.0887L396.596 69.9217C389.822 76.6957 378.838 76.6957 372.064 69.9217C365.569 63.4267 355.038 63.4267 348.543 69.9217C342.048 76.4167 342.048 86.9477 348.543 93.4427L418.503 163.403C424.998 169.898 435.529 169.898 442.024 163.403C448.519 156.908 448.519 146.377 442.023 139.882Z" fill="#3F5959"/>
<path d="M442.02 115.349C435.252 122.128 435.252 133.109 442.02 139.878C445.265 143.133 446.893 147.388 446.893 151.643C446.893 155.898 445.265 160.152 442.02 163.408C435.53 169.898 425.001 169.898 418.501 163.408L397.537 142.444C404.037 148.934 414.566 148.934 421.056 142.444C424.311 139.199 425.929 134.934 425.929 130.679C425.929 126.424 424.312 122.159 421.056 118.914C414.288 112.146 414.288 101.164 421.056 94.3849L448.892 66.5489C457.659 57.7919 460.296 45.2239 456.814 34.1699C461.584 35.6639 466.075 38.3109 469.856 42.0919C482.404 54.6289 482.404 74.9749 469.856 87.5129L442.02 115.349Z" fill="#384848"/>
<path d="M591.143 314V223.561H592.004L656.604 314H680.529V175.9H652.871V265.861H652.105L587.602 175.9H563.484V314H591.143ZM748.287 316.201C779.295 316.201 799.105 296.391 799.105 262.607C799.105 229.303 779.008 209.205 748.287 209.205C717.566 209.205 697.469 229.398 697.469 262.607C697.469 296.295 717.279 316.201 748.287 316.201ZM748.287 294.859C734.506 294.859 725.797 283.279 725.797 262.703C725.797 242.318 734.697 230.547 748.287 230.547C761.877 230.547 770.682 242.318 770.682 262.703C770.682 283.279 761.973 294.859 748.287 294.859ZM821.021 187.768V211.406H806.57V232.461H821.021V286.342C821.021 306.344 830.4 314.383 854.518 314.383C860.164 314.383 864.949 313.904 867.82 313.234V292.658C866.098 292.945 863.514 293.137 861.025 293.137C852.795 293.137 848.967 289.404 848.967 281.557V232.461H867.916V211.406H848.967V187.768H821.021ZM927.73 229.877C940.172 229.877 948.689 238.873 949.264 251.984H905.719C906.676 239.16 915.48 229.877 927.73 229.877ZM949.646 282.609C947.062 290.457 939.215 295.529 928.975 295.529C914.715 295.529 905.432 285.48 905.432 270.838V269.115H976.156V260.598C976.156 229.398 957.303 209.205 927.443 209.205C897.105 209.205 877.965 230.451 877.965 263.182C877.965 296.008 896.914 316.201 928.496 316.201C953.857 316.201 972.232 302.707 975.295 282.609H949.646Z" fill="#FB3A82"/>
<path d="M988.885 241.553C988.885 256.961 998.934 266.914 1018.74 271.125L1036.26 274.762C1046.31 277.059 1049.85 280.121 1049.85 285.576C1049.85 292.275 1043.34 296.582 1032.81 296.582C1021.71 296.582 1015.3 291.797 1013.58 282.801H986.301C988.119 302.994 1004.48 316.201 1032.81 316.201C1059.23 316.201 1077.7 302.898 1077.7 282.705C1077.7 267.68 1068.89 259.258 1047.46 254.76L1029.94 251.027C1019.61 248.826 1015.78 245.285 1015.78 240.021C1015.78 233.227 1022.19 228.824 1031.86 228.824C1042.19 228.824 1048.41 234.471 1049.27 242.797H1075.02C1074.44 222.699 1058.17 209.205 1031.86 209.205C1005.73 209.205 988.885 222.029 988.885 241.553Z" fill="#27D1B3"/>
<path d="M1132.73 175.9V314H1161.63V270.455H1187.47C1216.56 270.455 1236.76 251.506 1236.76 223.178C1236.76 194.754 1217.23 175.9 1188.9 175.9H1132.73ZM1161.63 198.773H1181.25C1197.8 198.773 1207.38 207.578 1207.38 223.273C1207.38 239.064 1197.71 247.869 1181.15 247.869H1161.63V198.773ZM1251.97 314H1279.92V211.406H1251.97V314ZM1265.85 197.529C1273.98 197.529 1280.4 191.021 1280.4 183.174C1280.4 175.23 1273.98 168.818 1265.85 168.818C1257.71 168.818 1251.3 175.23 1251.3 183.174C1251.3 191.021 1257.71 197.529 1265.85 197.529ZM1391.79 249.592C1390.55 226.336 1372.94 209.205 1345.19 209.205C1314.47 209.205 1294.85 229.686 1294.85 262.607C1294.85 296.104 1314.47 316.201 1345.38 316.201C1372.37 316.201 1390.46 300.602 1391.89 276.389H1365.86C1364.14 287.586 1356.86 294.285 1345.67 294.285C1331.79 294.285 1323.18 282.801 1323.18 262.607C1323.18 242.797 1331.79 231.121 1345.57 231.121C1357.05 231.121 1364.23 238.777 1365.86 249.592H1391.79ZM1434.38 252.559H1434V175.9H1406.05V314H1434V280.121L1441.27 272.273L1470.65 314H1502.81L1461.75 255.43L1500.9 211.406H1469.22L1434.38 252.559Z" fill="#FC9744"/>
<path d="M1556.88 229.877C1569.32 229.877 1577.84 238.873 1578.42 251.984H1534.87C1535.83 239.16 1544.63 229.877 1556.88 229.877ZM1578.8 282.609C1576.21 290.457 1568.37 295.529 1558.13 295.529C1543.87 295.529 1534.58 285.48 1534.58 270.838V269.115H1605.31V260.598C1605.31 229.398 1586.46 209.205 1556.6 209.205C1526.26 209.205 1507.12 230.451 1507.12 263.182C1507.12 296.008 1526.07 316.201 1557.65 316.201C1583.01 316.201 1601.38 302.707 1604.45 282.609H1578.8ZM1619.76 314H1647.71V256.674C1647.71 242.223 1655.74 233.801 1669.53 233.801C1673.54 233.801 1677.37 234.471 1679.67 235.428V210.832C1677.76 210.258 1674.98 209.779 1671.73 209.779C1659.67 209.779 1650.96 216.861 1647.32 229.877H1646.75V211.406H1619.76V314Z" fill="#31A7FB"/>
</svg>
